<?xml version="1.0" encoding="iso-8859-1"?>
<!-- Generator: Adobe Illustrator 19.0.0, SVG Export Plug-In . SVG Version: 6.00 Build 0)  -->
<svg version="1.1" id="Layer_1" xmlns="http://www.w3.org/2000/svg" xmlns:xlink="http://www.w3.org/1999/xlink" x="0px" y="0px"
	 viewBox="0 0 512 512" style="enable-background:new 0 0 512 512;" xml:space="preserve">
<g>
	<path style="fill:#EEC97B;" d="M255.152,104.216C256.76,104.088,258.368,104,260,104c1.624,0,3.24,0.088,4.848,0.216
		c7.768-24.712,23.904-43.28,43.784-51.52C298.728,30.272,280.24,16,260,16s-38.736,14.272-48.632,36.704
		C231.248,60.936,247.384,79.512,255.152,104.216z"/>
	<path style="fill:#EEC97B;" d="M188.16,152.008c2.504,0.008,4.992,0.224,7.464,0.544c9-22,24.968-38.072,43.824-44.904
		C230.672,81.296,210.616,64,188,64c-22.008,0-41.576,16.392-50.704,41.56C159.104,110.536,177.976,127.536,188.16,152.008z"/>
	<path style="fill:#EEC97B;" d="M260,120c-20.288,0-38.816,14.336-48.696,36.856c13.128,5.504,24.824,15.56,33.488,29.16
		C249.704,184.72,254.776,184,260,184c5.208,0,10.272,0.712,15.168,2c8.648-13.576,20.376-23.56,33.552-29.08
		C298.848,134.368,280.304,120,260,120z"/>
	<path style="fill:#EEC97B;" d="M195.656,311.272C190.8,299.432,188,286.12,188,272c0-35.304,17.136-65.736,41.744-79.744
		C219.08,176.832,204.112,168,188,168c-30.88,0-56,32.304-56,72s25.12,72,56,72C190.576,312,193.128,311.72,195.656,311.272z"/>
	<path style="fill:#EEC97B;" d="M171.648,154.376C161.528,133.256,143.552,120,124,120c-30.88,0-56,32.304-56,72
		c0,37.408,22.312,68.224,50.72,71.656C116.992,256.112,116,248.2,116,240C116,198.36,139.816,163.464,171.648,154.376z"/>
	<path style="fill:#EEC97B;" d="M316,272c0-39.696-25.12-72-56-72s-56,32.304-56,72s25.12,72,56,72S316,311.696,316,272z M284,312
		h-16v-16h16V312z M284,264h16v16h-16V264z"/>
	<path style="fill:#EEC97B;" d="M452,192c0-39.696-25.12-72-56-72c-19.552,0-37.528,13.256-47.656,34.376
		C380.184,163.464,404,198.36,404,240c0,8.2-0.992,16.112-2.72,23.656C429.688,260.224,452,229.408,452,192z"/>
	<path style="fill:#EEC97B;" d="M332,168c-16.008,0-31.16,9.12-41.704,24.28C314.88,206.296,332,236.712,332,272
		c0,14.12-2.8,27.432-7.664,39.272C326.872,311.72,329.424,312,332,312c30.88,0,56-32.304,56-72S362.88,168,332,168z"/>
	<path style="fill:#EEC97B;" d="M280.544,107.648c18.88,6.84,34.856,22.944,43.848,44.976c2.464-0.32,4.936-0.6,7.44-0.608
		c10.184-24.48,29.056-41.472,50.864-46.456C373.576,80.392,354.008,64,332,64C309.384,64,289.328,81.296,280.544,107.648z"/>
</g>
<g>
	<path style="fill:#3C4A53;" d="M461.784,415.016c-3.976-7.384-3.976-17-3.376-26.296l0.256-3.728
		c0.688-9.784,1.4-19.896-1.424-30.072c-0.864-3.12-2.12-6.144-3.72-9.008c-1.984-3.52-4.432-6.624-7.2-9.192
		c2.64-9.656,2.904-19.824,0.504-29.464c-3.408-13.72-12.048-25.744-23.464-33.896C449.52,260.168,468,228.688,468,192
		c0-47.224-30.624-85.776-68.856-87.808C388.496,70.344,362.128,48,332,48c-2.576,0-5.12,0.224-7.632,0.544
		C312.232,18.896,287.432,0,260,0c-27.44,0-52.232,18.896-64.368,48.544C193.12,48.224,190.576,48,188,48
		c-30.128,0-56.496,22.344-67.144,56.192C82.616,106.232,52,144.776,52,192c0,42.424,24.696,77.936,57.44,86.184
		c2.472,9.824,3.68,23.064,4.232,29.136c2.008,22.08-2.528,42.504-12.376,57.432c-2.272-7.944-6.992-18.76-18.272-21.976
		c-5.784-1.656-12.216-0.504-17.608,3.144c-5.96,4.024-9.944,10.512-10.656,17.36c-1.168,11.192,5.432,22.792,16.424,28.864
		c6.712,3.704,13.808,4.696,19.968,2.792c0.2-0.064,0.392-0.128,0.592-0.192l1.968,8.816c2.072,9.24,4.904,21.904,13.848,30.68
		c5.2,5.112,12.704,8.112,20.032,8.112c0.744,0,1.488-0.032,2.232-0.096c6.624-0.568,12.264-3.64,15.864-8.648l-12.992-9.344
		c-0.856,1.192-2.28,1.88-4.24,2.048c-3.336,0.32-7.264-1.112-9.688-3.488c-5.168-5.072-7.248-12.968-9.44-22.76l-3.464-15.504
		c17.768-18.416,26.592-47.328,23.744-78.688c-0.448-4.888-1.008-10.024-1.68-15.096L230.52,429.584
		c-7.888-3.256-16.2-5.584-23.856-5.584c-23,0-34.664,10.768-34.664,32s11.664,32,34.664,32c8.688,0,18.208-3.008,27.016-6.952
		l-12.344,18.512l13.312,8.872L252,482.424V512h16v-29.576l17.344,26.016l13.312-8.872l-12.344-18.512
		c8.808,3.936,18.336,6.944,27.016,6.944C336.336,488,348,477.232,348,456s-11.664-32-34.672-32c-7.648,0-15.96,2.328-23.856,5.576
		l110.752-149.84c0.352-0.024,0.712-0.032,1.064-0.064l-0.096,0.344c14.392,4.088,26.488,16.584,30.104,31.104
		c1.456,5.864,1.544,12.016,0.392,18.008c-7.112-1.216-14.832,1.112-20.224,6.096c-4.744,4.376-7.584,10.576-7.8,17.024
		c-0.12,3.52,0.56,6.704,2,9.448c2.032,3.864,5.496,6.6,9.512,7.528c5.48,1.24,11.552-0.976,16.264-5.984
		c2.944-3.136,5.536-6.528,7.744-10.12c0.128,0.208,0.248,0.424,0.368,0.64c0.976,1.736,1.736,3.576,2.256,5.456
		c2.088,7.52,1.504,15.848,0.88,24.664l-0.264,3.832c-0.744,11.664-0.632,23.968,5.264,34.904
		c6.808,12.632,20.712,20.552,34.896,20.552c2.464,0,4.928-0.24,7.368-0.736l-3.168-15.68
		C477.2,428.688,466.432,423.648,461.784,415.016z M86.44,379.648c-1.912,0.592-4.728,0.032-7.52-1.512
		c-5.272-2.912-8.736-8.464-8.24-13.192c0.224-2.136,1.672-4.392,3.704-5.768c0.688-0.472,1.92-1.144,3.256-1.144
		c0.328,0,0.664,0.04,1.008,0.144c4.712,1.344,7.088,9.664,8.464,15.816l1.08,4.824C87.6,379.168,87,379.472,86.44,379.648z M332,64
		c22.008,0,41.576,16.392,50.696,41.56c-21.808,4.976-40.672,21.976-50.864,46.456c-2.504,0.008-4.976,0.288-7.44,0.608
		c-9-22.032-24.976-38.136-43.848-44.976C289.328,81.296,309.384,64,332,64z M308.72,156.928
		c-13.176,5.52-24.904,15.496-33.552,29.08C270.272,184.712,265.208,184,260,184c-5.224,0-10.296,0.72-15.208,2.016
		c-8.664-13.6-20.36-23.656-33.488-29.16C221.184,134.336,239.712,120,260,120C280.304,120,298.848,134.368,308.72,156.928z M260,16
		c20.24,0,38.728,14.272,48.632,36.704c-19.88,8.232-36.016,26.808-43.784,51.52C263.24,104.088,261.624,104,260,104
		c-1.632,0-3.24,0.088-4.848,0.216c-7.768-24.712-23.904-43.28-43.776-51.512C221.264,30.272,239.76,16,260,16z M188,64
		c22.616,0,42.672,17.296,51.448,43.648c-18.856,6.832-34.824,22.904-43.824,44.904c-2.472-0.328-4.96-0.536-7.464-0.544
		c-10.184-24.48-29.056-41.472-50.864-46.456C146.424,80.392,165.992,64,188,64z M118.72,263.656C90.312,260.224,68,229.408,68,192
		c0-39.696,25.12-72,56-72c19.552,0,37.528,13.256,47.648,34.376C139.816,163.464,116,198.36,116,240
		C116,248.2,116.992,256.112,118.72,263.656z M132,240c0-39.696,25.12-72,56-72c16.112,0,31.08,8.832,41.744,24.256
		C205.136,206.264,188,236.696,188,272c0,14.12,2.8,27.432,7.656,39.272C193.128,311.72,190.576,312,188,312
		C157.12,312,132,279.696,132,240z M174.096,326.32C178.6,327.4,183.24,328,188,328c3.44,0,6.864-0.36,10.248-0.952l29.704,72.136
		L174.096,326.32z M206.664,472C189.336,472,188,465.368,188,456s1.336-16,18.664-16c11.752,0,28.288,8.88,39.344,16
		C234.968,463.128,218.456,472,206.664,472z M252,415.56l-27.68-67.224c8.336,5.848,17.696,9.736,27.68,11.096V415.56z M260,344
		c-30.88,0-56-32.304-56-72s25.12-72,56-72s56,32.304,56,72S290.88,344,260,344z M313.328,440c17.328,0,18.672,6.632,18.672,16
		s-1.344,16-18.672,16c-11.752,0-28.288-8.88-39.344-16C285.032,448.872,301.544,440,313.328,440z M268,415.56v-56.136
		c9.992-1.36,19.344-5.248,27.68-11.096L268,415.56z M292.048,399.184l29.704-72.128c3.384,0.584,6.8,0.944,10.248,0.944
		c4.76,0,9.4-0.6,13.904-1.68L292.048,399.184z M332,312c-2.576,0-5.128-0.28-7.664-0.728C329.2,299.432,332,286.12,332,272
		c0-35.288-17.12-65.704-41.704-79.72C300.84,177.12,315.992,168,332,168c30.88,0,56,32.304,56,72S362.88,312,332,312z
		 M401.28,263.656C403.008,256.112,404,248.2,404,240c0-41.64-23.816-76.536-55.656-85.624C358.472,133.256,376.448,120,396,120
		c30.88,0,56,32.304,56,72C452,229.408,429.688,260.224,401.28,263.656z M419.792,352.28c-0.032,0.04-0.072,0.08-0.112,0.12
		c0.168-2.032,1.136-4.032,2.632-5.416c0.84-0.776,1.856-1.368,2.944-1.736C423.672,347.728,421.848,350.088,419.792,352.28z"/>
	<path style="fill:#3C4A53;" d="M428.64,82c-2.04-3.336,0.408-9.128,4.192-13.856c1.8,4.32,4.712,8.08,8.608,10.712
		c5.848,3.968,13.816,4.656,20.784,1.808c6.456-2.64,10.88-7.76,12.152-14.048c1.168-5.776-0.408-11.664-4.432-16.568
		c-3-3.656-7.128-6.416-11.6-7.904c1.256-0.648,2.6-1.224,4.008-1.728c5.16-1.856,10.384-2.52,15.12-1.976l1.912-15.88
		c-7.192-0.864-14.968,0.096-22.464,2.8c-11.296,4.08-19.736,11.368-23.76,20.536c-0.128,0.28-0.24,0.56-0.352,0.848
		c-3.352,2.192-6.648,5.016-9.88,8.44c-8.648,9.144-15.272,23.2-7.936,35.184L428.64,82z M450.864,56.896h0.008
		c2.352,0,5.104,1.352,6.696,3.296c0.648,0.792,1.376,2.008,1.128,3.256c-0.28,1.392-2,2.192-2.528,2.408
		c-1.984,0.816-4.352,0.728-5.752-0.24c-2.304-1.56-3.616-4.696-3.656-8.032C448.112,57.152,449.48,56.904,450.864,56.896z"/>
	<path style="fill:#3C4A53;" d="M59,56.824c5.648,6.856,9.072,17.336,5.056,25.264c-0.4,0.784-0.616,1.024-0.64,1.04
		c0,0,0.072-0.072,0.208-0.16l8.512,13.544c2.512-1.576,4.536-3.936,6.184-7.208c7.928-15.672,1.4-33.64-8.584-44.496
		c-2.888-3.152-6-5.736-9.248-7.728c-1.648-9.288-6.424-18.208-13.736-24.944C37.872,3.968,23.888,0,4,0v16
		c15.472,0,26.208,2.656,31.912,7.912c2.664,2.456,4.808,5.392,6.36,8.56c-8.6,0.848-16.36,5.992-19.576,13.432
		c-2.376,5.512-1.936,12.08,1.176,17.576c2.856,5.048,7.56,8.352,12.92,9.072C47.168,73.952,55.544,65.936,59,56.824z
		 M44.464,49.808c-0.992,3.976-3.984,7.064-5.544,6.88c-0.264-0.032-0.728-0.392-1.128-1.096c-0.608-1.072-0.776-2.48-0.4-3.352
		c0.976-2.272,4.144-3.888,7.368-3.888h0.016C44.688,48.832,44.584,49.328,44.464,49.808z"/>
	<rect x="20" y="136" style="fill:#3C4A53;" width="16" height="16"/>
	<rect x="116" y="32" style="fill:#3C4A53;" width="16" height="16"/>
	<rect x="60" y="288" style="fill:#3C4A53;" width="16" height="16"/>
	<rect x="4" y="280" style="fill:#3C4A53;" width="16" height="16"/>
	<rect x="372" y="24" style="fill:#3C4A53;" width="16" height="16"/>
	<rect x="468" y="112" style="fill:#3C4A53;" width="16" height="16"/>
	<rect x="356" y="368" style="fill:#3C4A53;" width="16" height="16"/>
	<rect x="388" y="392" style="fill:#3C4A53;" width="16" height="16"/>
	<rect x="356" y="408" style="fill:#3C4A53;" width="16" height="16"/>
	<rect x="52" y="424" style="fill:#3C4A53;" width="16" height="16"/>
	<rect x="20" y="440" style="fill:#3C4A53;" width="16" height="16"/>
	<rect x="20" y="344" style="fill:#3C4A53;" width="16" height="16"/>
	<rect x="468" y="288" style="fill:#3C4A53;" width="16" height="16"/>
	<rect x="268" y="296" style="fill:#3C4A53;" width="16" height="16"/>
	<rect x="284" y="264" style="fill:#3C4A53;" width="16" height="16"/>
	<rect x="492" y="232" style="fill:#3C4A53;" width="16" height="16"/>
	<rect x="396" y="448" style="fill:#3C4A53;" width="16" height="16"/>
	<rect x="428" y="448" style="fill:#3C4A53;" width="16" height="16"/>
	<rect x="364" y="448" style="fill:#3C4A53;" width="16" height="16"/>
</g>
<g>
</g>
<g>
</g>
<g>
</g>
<g>
</g>
<g>
</g>
<g>
</g>
<g>
</g>
<g>
</g>
<g>
</g>
<g>
</g>
<g>
</g>
<g>
</g>
<g>
</g>
<g>
</g>
<g>
</g>
</svg>
