<?xml version="1.0" encoding="iso-8859-1"?>
<!-- Generator: Adobe Illustrator 19.0.0, SVG Export Plug-In . SVG Version: 6.00 Build 0)  -->
<svg version="1.1" id="Capa_1" xmlns="http://www.w3.org/2000/svg" xmlns:xlink="http://www.w3.org/1999/xlink" x="0px" y="0px"
	 viewBox="0 0 480.014 480.014" style="enable-background:new 0 0 480.014 480.014;" xml:space="preserve">
<g>
	<path style="fill:#ABD4D8;" d="M56.007,160.014c0-4.424,3.576-8,8-8h40v-16h-40c-13.232,0-24,10.768-24,24v256h16V160.014z"/>
	<circle style="fill:#ABD4D8;" cx="240.007" cy="328.014" r="8"/>
	<rect x="192.007" y="400.014" style="fill:#ABD4D8;" width="96" height="16"/>
	<path style="fill:#ABD4D8;" d="M416.007,432.014h-352h-32h-16v8c0,13.232,10.768,24,24,24h400c13.232,0,24-10.768,24-24v-8h-16
		H416.007z"/>
	<path style="fill:#ABD4D8;" d="M424.007,160.014v256h16v-256c0-13.232-10.768-24-24-24h-40v16h40
		C420.431,152.014,424.007,155.59,424.007,160.014z"/>
	<path style="fill:#ABD4D8;" d="M219.919,384.014h40.176l49.464-63.6l-61.552-67.712v52.784c9.288,3.312,16,12.112,16,22.528
		c0,13.232-10.768,24-24,24s-24-10.768-24-24c0-10.416,6.704-19.216,16-22.528v-52.784l-61.552,67.712L219.919,384.014z"/>
</g>
<path style="fill:#668894;" d="M88.007,192.014h16v-24h-32v248h104v-24c0-4.424,3.576-8,8-8h15.64l-45.952-59.088
	c-2.392-3.072-2.224-7.416,0.392-10.296l80-88c3.032-3.328,8.816-3.328,11.848,0l80,88c2.616,2.88,2.784,7.224,0.392,10.296
	l-45.96,59.088h15.64c4.424,0,8,3.576,8,8v24h104v-248h-32v24h16v16h-24h-256h-24V192.014z"/>
<path style="fill:#F08843;" d="M360.007,19.83l-29.032,11.616c-1.768,0.704-3.704,0.768-5.504,0.16l-45.216-15.072l-37.28,14.912
	c-1.904,0.768-4.032,0.768-5.936,0l-37.28-14.912l-45.216,15.072c-1.8,0.608-3.744,0.544-5.496-0.16l-29.04-11.616v172.184h240
	V19.83z M256.007,56.014h40v16h-40V56.014z M176.007,56.014h64v16h-64V56.014z M200.007,104.014v-16h16v16H200.007z
	 M216.007,120.014v16h-16v-16H216.007z M144.007,88.014h40v16h-40V88.014z M144.007,120.014h40v16h-40V120.014z M160.007,168.014
	h-16v-16h16V168.014z M248.007,168.014h-72v-16h72V168.014z M248.007,136.014h-16v-16h16V136.014z M296.007,168.014h-32v-16h32
	V168.014z M264.007,136.014v-16h16v16H264.007z M336.007,136.014h-40v-16h40V136.014z M336.007,104.014h-104v-16h104V104.014z
	 M336.007,72.014h-24v-16h24V72.014z"/>
<g>
	<path style="fill:#203C51;" d="M472.007,416.014h-16v-256c0-22.056-17.944-40-40-40h-40v-112c0-2.656-1.32-5.136-3.512-6.624
		c-2.2-1.488-5.016-1.8-7.456-0.808l-37.28,14.912L282.543,0.422c-1.8-0.616-3.744-0.552-5.496,0.16l-37.04,14.816L202.975,0.582
		c-1.76-0.712-3.712-0.776-5.504-0.16l-45.216,15.072l-37.28-14.912c-2.448-0.976-5.248-0.68-7.456,0.808
		c-2.192,1.488-3.512,3.968-3.512,6.624v112h-40c-22.056,0-40,17.944-40,40v256h-16c-4.424,0-8,3.576-8,8v16
		c0,22.056,17.944,40,40,40h400c22.056,0,40-17.944,40-40v-16C480.007,419.59,476.431,416.014,472.007,416.014z M416.007,136.014
		c13.232,0,24,10.768,24,24v256h-16v-256c0-4.424-3.576-8-8-8h-40v-16H416.007z M248.007,328.014c0,4.416-3.584,8-8,8
		c-4.416,0-8-3.584-8-8s3.584-8,8-8C244.423,320.014,248.007,323.598,248.007,328.014z M232.007,305.486
		c-9.296,3.312-16,12.112-16,22.528c0,13.232,10.768,24,24,24s24-10.768,24-24c0-10.416-6.712-19.216-16-22.528v-52.784
		l61.552,67.712l-49.464,63.6h-40.176l-49.464-63.6l61.552-67.712V305.486z M288.007,400.014v16h-96v-16H288.007z M296.007,384.014
		h-15.64l45.952-59.088c2.392-3.072,2.224-7.416-0.392-10.296l-80-88c-3.032-3.328-8.816-3.328-11.848,0l-80,88
		c-2.616,2.88-2.784,7.224-0.392,10.296l45.96,59.088h-15.64c-4.424,0-8,3.576-8,8v24h-104v-248h32v24h-16v16h24h256h24v-16h-16v-24
		h32v248h-104v-24C304.007,387.59,300.431,384.014,296.007,384.014z M120.007,19.83l29.032,11.616
		c1.76,0.704,3.704,0.768,5.496,0.16l45.216-15.072l37.28,14.912c1.904,0.768,4.032,0.768,5.936,0l37.28-14.912l45.216,15.072
		c1.8,0.608,3.736,0.544,5.504-0.16l29.04-11.616v172.184h-240V19.83z M40.007,160.014c0-13.232,10.768-24,24-24h40v16h-40
		c-4.424,0-8,3.576-8,8v256h-16V160.014z M464.007,440.014c0,13.232-10.768,24-24,24h-400c-13.232,0-24-10.768-24-24v-8h16h32h352
		h32h16V440.014z"/>
	<rect x="176.007" y="56.014" style="fill:#203C51;" width="64" height="16"/>
	<rect x="256.007" y="56.014" style="fill:#203C51;" width="40" height="16"/>
	<rect x="312.007" y="56.014" style="fill:#203C51;" width="24" height="16"/>
	<rect x="144.007" y="88.014" style="fill:#203C51;" width="40" height="16"/>
	<rect x="200.007" y="88.014" style="fill:#203C51;" width="16" height="16"/>
	<rect x="232.007" y="88.014" style="fill:#203C51;" width="104" height="16"/>
	<rect x="144.007" y="120.014" style="fill:#203C51;" width="40" height="16"/>
	<rect x="200.007" y="120.014" style="fill:#203C51;" width="16" height="16"/>
	<rect x="232.007" y="120.014" style="fill:#203C51;" width="16" height="16"/>
	<rect x="264.007" y="120.014" style="fill:#203C51;" width="16" height="16"/>
	<rect x="296.007" y="120.014" style="fill:#203C51;" width="40" height="16"/>
	<rect x="144.007" y="152.014" style="fill:#203C51;" width="16" height="16"/>
	<rect x="176.007" y="152.014" style="fill:#203C51;" width="72" height="16"/>
	<rect x="264.007" y="152.014" style="fill:#203C51;" width="32" height="16"/>
</g>
<g>
</g>
<g>
</g>
<g>
</g>
<g>
</g>
<g>
</g>
<g>
</g>
<g>
</g>
<g>
</g>
<g>
</g>
<g>
</g>
<g>
</g>
<g>
</g>
<g>
</g>
<g>
</g>
<g>
</g>
</svg>
