<?xml version="1.0" encoding="iso-8859-1"?>
<!-- Generator: Adobe Illustrator 19.0.0, SVG Export Plug-In . SVG Version: 6.00 Build 0)  -->
<svg version="1.1" id="Layer_1" xmlns="http://www.w3.org/2000/svg" xmlns:xlink="http://www.w3.org/1999/xlink" x="0px" y="0px"
	 viewBox="0 0 480 480" style="enable-background:new 0 0 480 480;" xml:space="preserve">
<g>
	<rect x="24" y="112" style="fill:#B5E2DE;" width="72" height="16"/>
	<circle style="fill:#B5E2DE;" cx="424" cy="352" r="8"/>
	<path style="fill:#B5E2DE;" d="M280,336.008c35.288,0,64-28.712,64-64s-28.712-64-64-64s-64,28.712-64,64
		S244.712,336.008,280,336.008z M239.672,251.968c2.416-0.808,5.056-0.392,7.128,1.072c2.736,1.944,5.92,2.968,9.2,2.968
		c8.824,0,16-7.176,16-16c0-1.624-0.32-3.336-0.984-5.216c-0.832-2.392-0.488-5.04,0.944-7.136c1.424-2.096,3.76-3.392,6.288-3.496
		c0.464-0.088,1.096-0.152,1.752-0.152c26.472,0,48,21.528,48,48s-21.528,48-48,48s-48-21.528-48-48c0-4.8,0.84-9.68,2.576-14.944
		C235.368,254.656,237.256,252.768,239.672,251.968z"/>
</g>
<polygon style="fill:#8FB3AF;" points="80,400 80,208 16,208 16,382.712 21.768,400 "/>
<path style="fill:#B5E2DE;" d="M280,304.008c17.648,0,32-14.352,32-32c0-14.888-10.224-27.44-24.016-30.992
	c-0.536,17.176-14.672,30.992-31.984,30.992c-2.712,0-5.392-0.344-7.984-1.016c-0.008,0.336-0.016,0.68-0.016,1.016
	C248,289.648,262.352,304.008,280,304.008z"/>
<path style="fill:#C94E4E;" d="M280,368.008c52.936,0,96-43.064,96-96s-43.064-96-96-96s-96,43.064-96,96
	S227.064,368.008,280,368.008z M280,192.008c44.112,0,80,35.888,80,80s-35.888,80-80,80s-80-35.888-80-80
	S235.888,192.008,280,192.008z"/>
<g>
	<path style="fill:#B5E2DE;" d="M96,200v200h362.232L464,382.712V192.576L457.064,144H456h-80h-24c-3.672,0-6.872-2.496-7.76-6.056
		L329.752,80h-91.504l-14.488,57.944c-0.888,3.56-4.088,6.056-7.76,6.056h-16h-64h-32H22.936l-6.856,48H88
		C92.416,192,96,195.584,96,200z M408,160h32v16h-32V160z M424,328.008c13.232,0,24,10.768,24,24s-10.768,24-24,24s-24-10.768-24-24
		S410.768,328.008,424,328.008z M376,160h16v16h-16V160z M256,104h56v16h-56V104z M280,160.008c61.76,0,112,50.24,112,112
		s-50.24,112-112,112s-112-50.24-112-112S218.24,160.008,280,160.008z M160,160h16v16h-16V160z M144,216h16v16h-16V216z M72,160h56
		v16H72V160z"/>
	<rect x="144" y="112" style="fill:#B5E2DE;" width="48" height="16"/>
	<rect x="384" y="112" style="fill:#B5E2DE;" width="64" height="16"/>
</g>
<g>
	<path style="fill:#030130;" d="M479.92,190.872l-8-56c-0.568-3.944-3.936-6.872-7.92-6.872v-24c0-4.416-3.584-8-8-8h-32v-8h-16v8
		h-32c-4.416,0-8,3.584-8,8v24h-9.752L343.76,70.056C342.872,66.504,339.672,64,336,64H232c-3.672,0-6.872,2.496-7.76,6.056
		L209.752,128H208v-24c0-4.416-3.584-8-8-8h-64c-4.416,0-8,3.584-8,8v24h-16v-24c0-4.416-3.584-8-8-8H16c-4.416,0-8,3.584-8,8v31.44
		l-7.92,55.432C0.024,191.248,0,191.624,0,192.008v192c0,0.856,0.136,1.712,0.408,2.528l8,24C9.504,413.8,12.56,416,16,416h448
		c3.44,0,6.496-2.2,7.592-5.472l8-24c0.272-0.808,0.408-1.664,0.408-2.52v-192C480,191.624,479.976,191.248,479.92,190.872z
		 M384,112h64v16h-64V112z M144,112h48v16h-48V112z M24,112h72v16H24V112z M16,382.712V208h64v192H21.768L16,382.712z M464,382.712
		L458.232,400H96V200c0-4.416-3.584-8-8-8H16.08l6.856-48H104h32h64h16c3.672,0,6.872-2.496,7.76-6.056L238.248,80h91.504
		l14.488,57.944c0.888,3.56,4.088,6.056,7.76,6.056h24h80h1.064L464,192.576V382.712z"/>
	<path style="fill:#030130;" d="M280,160.008c-61.76,0-112,50.24-112,112s50.24,112,112,112s112-50.24,112-112
		S341.76,160.008,280,160.008z M280,368.008c-52.936,0-96-43.064-96-96s43.064-96,96-96s96,43.064,96,96
		S332.936,368.008,280,368.008z"/>
	<path style="fill:#030130;" d="M280,192.008c-44.112,0-80,35.888-80,80s35.888,80,80,80s80-35.888,80-80
		S324.112,192.008,280,192.008z M280,336.008c-35.288,0-64-28.712-64-64s28.712-64,64-64s64,28.712,64,64
		S315.288,336.008,280,336.008z"/>
	<path style="fill:#030130;" d="M280,224.008c-0.656,0-1.288,0.064-1.752,0.152c-2.528,0.104-4.864,1.4-6.288,3.496
		c-1.424,2.096-1.776,4.744-0.944,7.136c0.664,1.88,0.984,3.592,0.984,5.216c0,8.824-7.176,16-16,16c-3.28,0-6.464-1.024-9.2-2.968
		c-2.072-1.464-4.712-1.872-7.128-1.072c-2.408,0.792-4.304,2.68-5.096,5.096C232.84,262.32,232,267.208,232,272.008
		c0,26.472,21.528,48,48,48s48-21.528,48-48S306.472,224.008,280,224.008z M280,304.008c-17.648,0-32-14.352-32-32
		c0-0.336,0.008-0.672,0.016-1.016c2.592,0.672,5.264,1.016,7.984,1.016c17.312,0,31.448-13.816,31.984-30.992
		C301.776,244.568,312,257.12,312,272.008C312,289.648,297.648,304.008,280,304.008z"/>
	<rect x="376" y="160" style="fill:#030130;" width="16" height="16"/>
	<rect x="408" y="160" style="fill:#030130;" width="32" height="16"/>
	<rect x="144" y="216" style="fill:#030130;" width="16" height="16"/>
	<rect x="160" y="160" style="fill:#030130;" width="16" height="16"/>
	<path style="fill:#030130;" d="M424,328.008c-13.232,0-24,10.768-24,24s10.768,24,24,24s24-10.768,24-24
		S437.232,328.008,424,328.008z M424,360.008c-4.408,0-8-3.592-8-8s3.592-8,8-8s8,3.592,8,8S428.408,360.008,424,360.008z"/>
	<rect x="256" y="104" style="fill:#030130;" width="56" height="16"/>
	<rect x="72" y="160" style="fill:#030130;" width="56" height="16"/>
</g>
<g>
</g>
<g>
</g>
<g>
</g>
<g>
</g>
<g>
</g>
<g>
</g>
<g>
</g>
<g>
</g>
<g>
</g>
<g>
</g>
<g>
</g>
<g>
</g>
<g>
</g>
<g>
</g>
<g>
</g>
</svg>
