<svg height="512pt" viewBox="-22 0 512 512.001" width="512pt" xmlns="http://www.w3.org/2000/svg"><path d="m447.480469 361.105469h-426.667969v-286.585938c0-5.523437 4.476562-10 10-10h406.667969c5.523437 0 10 4.476563 10 10zm0 0" fill="#e1ebef"/><path d="m426.667969 64.519531v252.878907c0 11.496093-9.320313 20.8125-20.816407 20.8125h-385.039062v22.894531h426.667969v-286.585938c0-5.523437-4.476563-10-10-10zm0 0" fill="#c4d3d6"/><path d="m447.480469 282.015625-141.476563-141.472656c-2.332031-2.332031-6.109375-2.347657-8.457031-.027344l-82.132813 81.140625-44.667968-44.664062c-2.34375-2.34375-6.140625-2.34375-8.484375 0l-141.449219 141.445312v42.667969h426.667969zm0 0" fill="#6ec030"/><path d="m297.546875 140.566406-9.285156 9.289063 124.203125 125.285156c7.71875 7.785156 12.054687 18.300781 12.066406 29.261719l.015625 12.972656c.011719 11.503906-9.3125 20.835938-20.8125 20.835938h-382.921875v22.894531h426.667969v-79.089844l-141.449219-141.449219c-2.34375-2.339844-6.140625-2.339844-8.484375 0zm0 0" fill="#378900"/><path d="m297.546875 140.675781-42.585937 42.585938 30.175781 30.179687 22.894531-22.894531 12.023438 11.910156 23.878906-23.878906-37.902344-37.902344c-2.34375-2.347656-6.140625-2.347656-8.484375 0zm0 0" fill="#64aef7"/><path d="m288.3125 149.90625 41.964844 42.328125 13.65625-13.65625-37.902344-37.902344c-2.34375-2.34375-6.144531-2.34375-8.484375 0zm0 0" fill="#0a86e3"/><path d="m162.261719 176.992188-42.585938 42.585937 26.015625 26.015625 22.894532-22.894531 22.949218 22.835937 23.878906-23.875-44.667968-44.667968c-2.34375-2.34375-6.140625-2.34375-8.484375 0zm0 0" fill="#64aef7"/><path d="m0 371.105469v21.625c0 5.523437 4.476562 10 10 10h448.292969c5.523437 0 10-4.476563 10-10v-21.625c0-5.523438-4.476563-10-10-10h-448.292969c-5.523438 0-10 4.476562-10 10zm0 0" fill="#f0a65f"/><path d="m447.480469 361.105469v13.527343c0 5.75-4.660157 10.40625-10.40625 10.40625h-437.074219v7.691407c0 5.523437 4.476562 10 10 10h448.292969c5.523437 0 10-4.476563 10-10v-21.625c0-5.523438-4.476563-10-10-10zm0 0" fill="#e28540"/><path d="m241.835938 0h-21.625c-5.523438 0-10 4.476562-10 10v54.519531h41.625v-54.519531c0-5.523438-4.476563-10-10-10zm0 0" fill="#f0a65f"/><path d="m234.148438 0v36.421875c0 5.75-4.660157 10.40625-10.410157 10.40625h-13.527343v17.691406h41.625v-54.519531c0-5.523438-4.476563-10-10-10zm0 0" fill="#e28540"/><path d="m251.835938 402.730469h-41.625v99.269531c0 5.523438 4.476562 10 10 10h21.625c5.523437 0 10-4.476562 10-10zm0 0" fill="#f0a65f"/><path d="m210.210938 402.730469v13.53125h18.734374c3.445313 0 6.242188 2.792969 6.242188 6.242187v89.496094h6.648438c5.523437 0 10-4.476562 10-10v-99.269531zm0 0" fill="#e28540"/><path d="m324.683594 402.730469h-42.667969l40.183594 102.90625c1.496093 3.839843 5.195312 6.363281 9.3125 6.363281h21.199219c7.039062 0 11.875-7.078125 9.3125-13.636719zm0 0" fill="#f0a65f"/><path d="m312.707031 420.234375 35.832031 91.765625h4.171876c7.039062 0 11.875-7.078125 9.3125-13.636719l-37.339844-95.632812h-42.667969l5.285156 13.53125h19.589844c2.570313 0 4.878906 1.574219 5.816406 3.972656zm0 0" fill="#e28540"/><path d="m137.367188 402.730469h42.667968l-40.183594 102.90625c-1.5 3.839843-5.195312 6.363281-9.316406 6.363281h-21.195312c-7.039063 0-11.875-7.078125-9.3125-13.636719zm0 0" fill="#f0a65f"/><path d="m137.367188 402.730469-5.285157 13.53125h14.875c4.394531 0 7.414063 4.417969 5.816407 8.511719l-34.058594 87.226562h11.820312c4.121094 0 7.816406-2.527344 9.316406-6.363281l40.179688-102.90625zm0 0" fill="#e28540"/></svg>