<?xml version="1.0" encoding="iso-8859-1"?>
<!-- Generator: Adobe Illustrator 19.0.0, SVG Export Plug-In . SVG Version: 6.00 Build 0)  -->
<svg version="1.1" id="Capa_1" xmlns="http://www.w3.org/2000/svg" xmlns:xlink="http://www.w3.org/1999/xlink" x="0px" y="0px"
	 viewBox="0 0 480 480" style="enable-background:new 0 0 480 480;" xml:space="preserve">
<path style="fill:#CE7DA5;" d="M44,152h128V56h32V8h-64c0,1.856-0.2,3.64-0.544,5.376C136.888,28.472,123.832,40,108,40
	c-15.816,0-28.872-11.504-31.456-26.584C76.208,11.672,76,9.872,76,8H12v48h32V152z"/>
<g>
	<path style="fill:#DFF3E3;" d="M428,136h40V96C445.888,96,428,113.888,428,136z"/>
	<path style="fill:#DFF3E3;" d="M468,48V8h-40C428,30.112,445.888,48,468,48z"/>
</g>
<path style="fill:#79ACC6;" d="M468,96V48c-22.112,0-40-17.888-40-40H284c0,22.112-17.888,40-40,40v48c22.112,0,40,17.888,40,40h144
	C428,113.888,445.888,96,468,96z M356,96c-13.256,0-24-10.744-24-24s10.744-24,24-24s24,10.744,24,24S369.256,96,356,96z"/>
<g>
	<path style="fill:#DFF3E3;" d="M284,8h-40v40C266.112,48,284,30.112,284,8z"/>
	<path style="fill:#DFF3E3;" d="M244,96v40h40C284,113.888,266.112,96,244,96z"/>
	<circle style="fill:#DFF3E3;" cx="356" cy="72" r="24"/>
</g>
<path style="fill:#BEE5BF;" d="M164,264c8.84,0,16,7.16,16,16s-7.16,16-16,16c8.84,0,16,7.16,16,16s-7.16,16-16,16
	c8.84,0,16,7.16,16,16s-7.16,16-16,16c8.84,0,16,7.16,16,16c0,2.928-0.848,5.64-2.216,8H324v-56V224H164V264z"/>
<path style="fill:#79ACC6;" d="M164,216v8h160v-8c0-17.672-14.328-32-32-32h-96C178.328,184,164,198.328,164,216z"/>
<g>
	<path style="fill:#DFF3E3;" d="M168.808,391.184c1.016-0.328,1.992-0.728,2.904-1.248c0.176-0.096,0.352-0.184,0.528-0.288
		c2.296-1.392,4.192-3.328,5.544-5.656C179.152,381.64,180,378.928,180,376c0-8.84-7.16-16-16-16c8.84,0,16-7.16,16-16
		s-7.16-16-16-16c8.84,0,16-7.16,16-16s-7.16-16-16-16c8.84,0,16-7.16,16-16s-7.16-16-16-16h-16c-8.84,0-16,7.16-16,16v16v32v32v16
		c0,8.84,7.16,16,16,16h16c1.344,0,2.64-0.216,3.88-0.528C168.2,391.392,168.496,391.28,168.808,391.184z"/>
	<path style="fill:#DFF3E3;" d="M324,392c0,17.672-14.328,32-32,32h-96c-2.024,0-3.992-0.232-5.92-0.6
		c-1.128-0.208-2.192-0.576-3.272-0.904c-0.672-0.208-1.36-0.384-2.016-0.624c-1.44-0.544-2.792-1.216-4.128-1.952
		c-0.184-0.104-0.376-0.2-0.56-0.304c-1.488-0.856-2.88-1.832-4.208-2.912l0,0L196,472h120l40-64V296c-17.672,0-32,14.328-32,32v56
		V392z"/>
</g>
<path style="fill:#79ACC6;" d="M180.664,419.92c1.336,0.736,2.688,1.408,4.128,1.952c0.656,0.248,1.344,0.424,2.016,0.624
	c1.088,0.328,2.144,0.696,3.272,0.904c1.928,0.368,3.896,0.6,5.92,0.6h96c17.672,0,32-14.328,32-32v-8H177.784
	c-1.352,2.32-3.248,4.264-5.544,5.656c-0.168,0.104-0.352,0.192-0.528,0.288c-0.912,0.512-1.888,0.92-2.904,1.248
	c-0.304,0.096-0.608,0.208-0.928,0.288c-1.24,0.304-2.536,0.52-3.88,0.52c0,10.016,4.696,18.84,11.896,24.712
	c1.328,1.08,2.72,2.048,4.208,2.912C180.288,419.72,180.48,419.816,180.664,419.92z"/>
<g>
	<path style="fill:#493657;" d="M12,64h24v88c0,4.424,3.584,8,8,8h128c4.416,0,8-3.576,8-8V64h24c4.416,0,8-3.576,8-8V8
		c0-4.424-3.584-8-8-8h-64c-4.416,0-8,3.576-8,8c0,1.32-0.152,2.6-0.432,4.032C129.608,23.6,119.688,32,108,32
		c-11.68,0-21.592-8.384-23.6-20.12C84.16,10.632,84,9.336,84,8c0-4.424-3.584-8-8-8H12C7.584,0,4,3.576,4,8v48
		C4,60.424,7.584,64,12,64z M20,16h48.896C72.672,34.616,88.92,48,108,48c19.152,0,35.432-13.472,39.112-32H196v32h-24
		c-4.416,0-8,3.576-8,8v88H52V56c0-4.424-3.584-8-8-8H20V16z"/>
	<path style="fill:#493657;" d="M476,136V8c0-4.424-3.584-8-8-8H244c-4.416,0-8,3.576-8,8v128c0,4.424,3.584,8,8,8h224
		C472.416,144,476,140.424,476,136z M420.72,128H291.28c-3.384-20.056-19.224-35.888-39.28-39.28V55.28
		c20.056-3.384,35.888-19.224,39.28-39.28h129.44c3.384,20.056,19.224,35.888,39.28,39.28v33.448
		C439.944,92.112,424.112,107.944,420.72,128z M460,38.864C448.808,35.952,440.048,27.192,437.136,16H460V38.864z M274.864,16
		C271.952,27.192,263.192,35.952,252,38.864V16H274.864z M252,105.136c11.192,2.912,19.952,11.672,22.864,22.864H252V105.136z
		 M437.136,128c2.912-11.192,11.672-19.952,22.864-22.864V128H437.136z"/>
	<path style="fill:#493657;" d="M356,40c-17.648,0-32,14.352-32,32s14.352,32,32,32s32-14.352,32-32S373.648,40,356,40z M356,88
		c-8.824,0-16-7.176-16-16s7.176-16,16-16s16,7.176,16,16S364.824,88,356,88z"/>
	<path style="fill:#493657;" d="M156,216v40h-8c-13.232,0-24,10.768-24,24v96c0,13.232,10.768,24,24,24h8.808
		c1.712,8.416,6.168,15.784,12.272,21.384l19.4,53.352c1.152,3.16,4.16,5.264,7.52,5.264h120c2.76,0,5.32-1.424,6.784-3.76l40-64
		c0.792-1.272,1.216-2.736,1.216-4.24V296c0-4.424-3.584-8-8-8c-9.04,0-17.296,3.128-24,8.208V216c0-22.056-17.944-40-40-40h-96
		C173.944,176,156,193.944,156,216z M316,328v48H188c0-6.144-2.32-11.752-6.128-16c3.808-4.248,6.128-9.856,6.128-16
		s-2.32-11.752-6.128-16c3.808-4.248,6.128-9.856,6.128-16s-2.32-11.752-6.128-16c3.808-4.248,6.128-9.856,6.128-16
		c0-1.512-0.176-2.976-0.448-4.408c-0.08-0.448-0.208-0.872-0.32-1.312c-0.24-0.984-0.536-1.952-0.896-2.88
		c-0.176-0.456-0.352-0.896-0.56-1.336c-0.432-0.944-0.928-1.84-1.472-2.712c-0.208-0.328-0.384-0.68-0.608-1
		c-0.8-1.152-1.68-2.232-2.664-3.232c-0.16-0.168-0.352-0.296-0.52-0.456c-0.848-0.808-1.752-1.56-2.712-2.24
		c-0.368-0.256-0.752-0.488-1.128-0.728c-0.84-0.528-1.712-1-2.624-1.424c-0.416-0.192-0.824-0.384-1.248-0.552
		c-0.272-0.112-0.52-0.256-0.8-0.352V232h144V328z M191.4,415.52c-0.008,0-0.016-0.008-0.024-0.008
		c-0.272-0.056-0.528-0.144-0.792-0.208c-4.168-1.016-7.44-3.008-9.64-4.8c-0.112-0.088-0.248-0.128-0.368-0.208
		c-0.376-0.32-0.744-0.656-1.104-1c-0.328-0.312-0.696-0.584-1-0.92c-0.672-0.72-1.256-1.512-1.84-2.312
		c-0.176-0.24-0.392-0.456-0.56-0.704c-0.704-1.048-1.32-2.152-1.856-3.304c-0.008-0.024-0.024-0.048-0.04-0.072
		c-0.544-1.176-0.992-2.408-1.336-3.68c0.096-0.04,0.184-0.096,0.28-0.136c0.304-0.128,0.576-0.288,0.872-0.424
		c0.992-0.456,1.944-0.968,2.856-1.552c0.392-0.248,0.76-0.512,1.136-0.776c0.816-0.592,1.584-1.232,2.32-1.92
		c0.296-0.28,0.608-0.528,0.888-0.824c0.216-0.224,0.432-0.448,0.64-0.68H316c0,13.232-10.768,24-24,24h-96
		C194.36,416,192.84,415.808,191.4,415.52z M140,280c0-4.416,3.592-8,8-8h16c4.408,0,8,3.584,8,8s-3.592,8-8,8h-24V280z M140,304h24
		c4.408,0,8,3.584,8,8s-3.592,8-8,8h-24V304z M140,336h24c4.408,0,8,3.584,8,8s-3.592,8-8,8h-24V336z M140,376v-8h24
		c4.408,0,8,3.584,8,8c0,1.864-0.744,3.512-1.816,4.872c-0.312,0.408-0.648,0.784-1.016,1.112c-0.52,0.448-1.088,0.848-1.712,1.152
		c-0.24,0.12-0.488,0.216-0.744,0.312C165.856,383.76,164.96,384,164,384h-16C143.592,384,140,380.416,140,376z M348,305.368
		v100.336L311.568,464H201.6l-11.816-32.496c2.048,0.328,4.12,0.496,6.216,0.496h96c22.056,0,40-17.944,40-40v-8v-56
		C332,317.568,338.688,308.672,348,305.368z M316,216H172c0-13.232,10.768-24,24-24h96C305.232,192,316,202.768,316,216z"/>
	<path style="fill:#493657;" d="M236,344c0.104,0,0.2,0,0.312-0.008c2.224-0.088,4.32-1.096,5.768-2.792l48-56l-12.152-10.408
		l-42.376,49.44l-25.888-25.888l-11.312,11.312l32,32C231.848,343.16,233.88,344,236,344z"/>
	<rect x="60" y="184" style="fill:#493657;" width="16" height="16"/>
	<rect x="60" y="216" style="fill:#493657;" width="16" height="16"/>
	<rect x="60" y="248" style="fill:#493657;" width="16" height="16"/>
	<rect x="60" y="280" style="fill:#493657;" width="16" height="16"/>
	<rect x="60" y="312" style="fill:#493657;" width="16" height="16"/>
	<rect x="60" y="344" style="fill:#493657;" width="16" height="16"/>
	<rect x="92" y="344" style="fill:#493657;" width="16" height="16"/>
	<rect x="380" y="352" style="fill:#493657;" width="16" height="16"/>
	<rect x="412" y="352" style="fill:#493657;" width="16" height="16"/>
	<rect x="412" y="320" style="fill:#493657;" width="16" height="16"/>
	<rect x="412" y="288" style="fill:#493657;" width="16" height="16"/>
	<rect x="412" y="256" style="fill:#493657;" width="16" height="16"/>
	<rect x="412" y="224" style="fill:#493657;" width="16" height="16"/>
	<rect x="412" y="192" style="fill:#493657;" width="16" height="16"/>
	<rect x="412" y="160" style="fill:#493657;" width="16" height="16"/>
</g>
<g>
</g>
<g>
</g>
<g>
</g>
<g>
</g>
<g>
</g>
<g>
</g>
<g>
</g>
<g>
</g>
<g>
</g>
<g>
</g>
<g>
</g>
<g>
</g>
<g>
</g>
<g>
</g>
<g>
</g>
</svg>
