<?xml version="1.0" encoding="iso-8859-1"?>
<!-- Generator: Adobe Illustrator 19.0.0, SVG Export Plug-In . SVG Version: 6.00 Build 0)  -->
<svg version="1.1" id="Layer_1" xmlns="http://www.w3.org/2000/svg" xmlns:xlink="http://www.w3.org/1999/xlink" x="0px" y="0px"
	 viewBox="0 0 300.726 300.726" style="enable-background:new 0 0 300.726 300.726;" xml:space="preserve">
<g>
	<g id="shop-retail-store-front-restaruant_1_">
		<path style="fill:#F78B28;" d="M32.892,296.027v-79.88c0-18.138,14.754-32.892,32.892-32.892s32.892,14.754,32.892,32.892v79.88
			h178.556c7.772,0,14.096-6.325,14.096-14.096V124.256c-2.777,1.616-5.958,2.613-9.398,2.613c-5.639,0-10.648-2.547-14.097-6.494
			c-3.449,3.947-8.458,6.494-14.096,6.494c-5.639,0-10.648-2.547-14.096-6.494c-3.449,3.947-8.458,6.494-14.097,6.494
			s-10.648-2.547-14.096-6.494c-3.449,3.947-8.458,6.494-14.097,6.494s-10.648-2.547-14.096-6.494
			c-3.449,3.947-8.458,6.494-14.097,6.494s-10.648-2.547-14.096-6.494c-3.449,3.947-8.458,6.494-14.096,6.494
			c-5.639,0-10.648-2.547-14.097-6.494c-3.449,3.947-8.458,6.494-14.097,6.494s-10.648-2.547-14.097-6.494
			c-3.449,3.947-8.458,6.494-14.097,6.494s-10.648-2.547-14.096-6.494c-3.449,3.947-8.458,6.494-14.097,6.494
			s-10.648-2.547-14.097-6.494c-3.449,3.947-8.458,6.494-14.097,6.494c-3.44,0-6.621-0.996-9.398-2.613V281.93
			C18.795,289.702,25.12,296.027,32.892,296.027z M108.073,157.411v-16.446c0-2.594,2.105-4.699,4.699-4.699h32.892h32.892h32.892
			h32.892h32.892c2.594,0,4.699,2.105,4.699,4.699v16.446v101.025c0,2.594-2.105,4.699-4.699,4.699h-164.46
			c-2.594,0-4.699-2.105-4.699-4.699C108.073,258.436,108.073,157.411,108.073,157.411z"/>
		<path style="fill:#3ADDBE;" d="M272.532,174.975c-3.364,2.255-7.401,3.581-11.747,3.581c-6.677,0-12.569-3.172-16.446-8.016
			c-3.877,4.845-9.769,8.016-16.446,8.016s-12.569-3.172-16.446-8.016c-3.877,4.845-9.769,8.016-16.446,8.016
			s-12.569-3.172-16.446-8.016c-3.877,4.845-9.769,8.016-16.446,8.016s-12.569-3.172-16.446-8.016
			c-3.877,4.845-9.769,8.016-16.446,8.016c-4.346,0-8.383-1.325-11.747-3.581v78.762h155.062V174.975z M148.986,238.264
			l-6.644-6.644l42.29-42.29l6.644,6.644L148.986,238.264z M200.673,238.264l-6.644-6.644l42.29-42.29l6.644,6.644L200.673,238.264z
			 M70.483,249.038h18.795v18.795H70.483V249.038z M42.29,249.038h18.795v18.795H42.29V249.038z M70.483,277.231h18.795v18.795
			H70.483V277.231z M42.764,211.448h18.321v-18.321C51.894,195.002,44.639,202.257,42.764,211.448z M42.29,220.845h18.795v18.795
			H42.29V220.845z M42.29,277.231h18.795v18.795H42.29V277.231z M70.483,220.845h18.795v18.795H70.483V220.845z M70.483,193.127
			v18.321h18.321C86.928,202.257,79.673,195.002,70.483,193.127z"/>
		<path style="fill:#F8CF26;" d="M28.193,117.471c5.183,0,9.398-4.215,9.398-9.398V84.579H18.795v23.494
			C18.795,113.256,23.01,117.471,28.193,117.471z M162.11,169.158c6.475,0,11.747-5.272,11.747-11.747v-11.747h-23.494v11.747
			C150.363,163.886,155.635,169.158,162.11,169.158z M129.218,169.158c6.475,0,11.747-5.272,11.747-11.747v-11.747h-23.494v11.747
			C117.471,163.886,122.743,169.158,129.218,169.158z M195.002,169.158c6.475,0,11.747-5.272,11.747-11.747v-11.747h-23.494v11.747
			C183.255,163.886,188.527,169.158,195.002,169.158z M227.893,169.158c6.475,0,11.747-5.272,11.747-11.747v-11.747h-23.494v11.747
			C216.146,163.886,221.418,169.158,227.893,169.158z M112.772,117.471c5.183,0,9.398-4.215,9.398-9.398V84.579h-18.795v23.494
			C103.374,113.256,107.589,117.471,112.772,117.471z M84.579,117.471c5.183,0,9.398-4.215,9.398-9.398V84.579H75.181v23.494
			C75.181,113.256,79.396,117.471,84.579,117.471z M140.965,117.471c5.183,0,9.398-4.215,9.398-9.398V84.579h-18.795v23.494
			C131.567,113.256,135.782,117.471,140.965,117.471z M260.785,169.158c6.475,0,11.747-5.272,11.747-11.747v-11.747h-23.494v11.747
			C249.038,163.886,254.31,169.158,260.785,169.158z M169.158,117.471c5.183,0,9.398-4.215,9.398-9.398V84.579H159.76v23.494
			C159.76,113.256,163.975,117.471,169.158,117.471z M56.386,117.471c5.183,0,9.398-4.215,9.398-9.398V84.579H46.988v23.494
			C46.988,113.256,51.203,117.471,56.386,117.471z M272.532,108.073c0,5.183,4.215,9.398,9.398,9.398s9.398-4.215,9.398-9.398
			V84.579h-18.795v23.494H272.532z M28.193,14.097H281.93v9.398H28.193V14.097z M225.544,117.471c5.183,0,9.398-4.215,9.398-9.398
			V84.579h-18.795v23.494C216.146,113.256,220.361,117.471,225.544,117.471z M197.351,117.471c5.183,0,9.398-4.215,9.398-9.398
			V84.579h-18.795v23.494C187.953,113.256,192.168,117.471,197.351,117.471z M253.737,117.471c5.183,0,9.398-4.215,9.398-9.398
			V84.579H244.34v23.494C244.339,113.256,248.554,117.471,253.737,117.471z"/>
		<polygon style="fill:#F8CF26;" points="70.483,75.181 98.676,75.181 126.869,75.181 155.062,75.181 183.255,75.181 
			211.448,75.181 239.641,75.181 267.834,75.181 291.328,75.181 291.328,32.892 286.629,32.892 23.494,32.892 18.795,32.892 
			18.795,75.181 42.29,75.181 		"/>
		<path d="M291.328,18.795h-4.699V4.699c0-2.594-2.105-4.699-4.699-4.699H18.795c-2.594,0-4.699,2.105-4.699,4.699v14.097H9.398
			c-2.594,0-4.699,2.105-4.699,4.699v51.687v28.193v173.857c0,12.955,10.539,23.494,23.494,23.494h4.699h56.386h183.255
			c12.955,0,23.494-10.539,23.494-23.494V103.374V75.181V23.494C296.027,20.9,293.921,18.795,291.328,18.795z M286.629,103.374
			c0,5.183-4.215,9.398-9.398,9.398s-9.398-4.215-9.398-9.398V79.88h18.795v23.494C286.628,103.374,286.629,103.374,286.629,103.374
			z M258.436,103.374c0,5.183-4.215,9.398-9.398,9.398s-9.398-4.215-9.398-9.398V79.88h18.795L258.436,103.374L258.436,103.374z
			 M230.243,103.374c0,5.183-4.215,9.398-9.398,9.398s-9.398-4.215-9.398-9.398V79.88h18.795L230.243,103.374L230.243,103.374z
			 M202.05,103.374c0,5.183-4.215,9.398-9.398,9.398s-9.398-4.215-9.398-9.398V79.88h18.795L202.05,103.374L202.05,103.374z
			 M173.857,103.374c0,5.183-4.215,9.398-9.398,9.398s-9.398-4.215-9.398-9.398V79.88h18.795L173.857,103.374L173.857,103.374z
			 M145.664,103.374c0,5.183-4.215,9.398-9.398,9.398s-9.398-4.215-9.398-9.398V79.88h18.795L145.664,103.374L145.664,103.374z
			 M117.471,103.374c0,5.183-4.215,9.398-9.398,9.398s-9.398-4.215-9.398-9.398V79.88h18.795v23.494
			C117.47,103.374,117.471,103.374,117.471,103.374z M89.278,103.374c0,5.183-4.215,9.398-9.398,9.398s-9.398-4.215-9.398-9.398
			V79.88h18.795v23.494C89.277,103.374,89.278,103.374,89.278,103.374z M61.085,103.374c0,5.183-4.215,9.398-9.398,9.398
			s-9.398-4.215-9.398-9.398V79.88h18.795L61.085,103.374L61.085,103.374z M32.892,103.374c0,5.183-4.215,9.398-9.398,9.398
			s-9.398-4.215-9.398-9.398V79.88h18.795L32.892,103.374L32.892,103.374z M23.494,9.398h253.737v9.398H23.494V9.398z
			 M14.097,28.193h4.699H281.93h4.699v42.29h-23.494h-28.193h-28.193h-28.193h-28.193H122.17H93.977H65.784H37.591H14.097V28.193z
			 M84.579,234.942H65.784v-18.795h18.795C84.579,216.147,84.579,234.942,84.579,234.942z M84.579,244.339v18.795H65.784v-18.795
			H84.579z M65.784,206.749v-18.321c9.191,1.875,16.446,9.13,18.321,18.321H65.784z M56.386,206.749H38.065
			c1.875-9.191,9.13-16.446,18.321-18.321C56.386,188.428,56.386,206.749,56.386,206.749z M37.591,216.146h18.795v18.795H37.591
			V216.146z M37.591,244.339h18.795v18.795H37.591V244.339z M37.591,272.532h18.795v18.795H37.591V272.532z M65.784,291.328v-18.795
			h18.795v18.795H65.784z M272.532,291.328H93.977v-79.88c0-18.138-14.754-32.892-32.892-32.892s-32.892,14.754-32.892,32.892v79.88
			c-7.772,0-14.097-6.325-14.097-14.096V119.557c2.777,1.616,5.958,2.613,9.398,2.613c5.639,0,10.648-2.547,14.097-6.494
			c3.449,3.947,8.458,6.494,14.097,6.494s10.648-2.547,14.097-6.494c3.449,3.947,8.458,6.494,14.097,6.494
			s10.648-2.547,14.097-6.494c3.449,3.947,8.458,6.494,14.097,6.494s10.648-2.547,14.097-6.494
			c3.449,3.947,8.458,6.494,14.097,6.494s10.648-2.547,14.096-6.494c3.449,3.947,8.458,6.494,14.097,6.494
			s10.648-2.547,14.096-6.494c3.449,3.947,8.458,6.494,14.097,6.494s10.648-2.547,14.096-6.494
			c3.449,3.947,8.458,6.494,14.096,6.494c5.639,0,10.648-2.547,14.097-6.494c3.449,3.947,8.458,6.494,14.096,6.494
			c5.639,0,10.648-2.547,14.097-6.494c3.449,3.947,8.458,6.494,14.096,6.494c3.44,0,6.621-0.996,9.398-2.613v157.674
			C286.629,285.003,280.304,291.328,272.532,291.328z"/>
		<path d="M272.532,131.567H239.64h-32.892h-32.892h-32.892h-32.892c-2.594,0-4.699,2.105-4.699,4.699v16.446v101.025
			c0,2.594,2.105,4.699,4.699,4.699h164.459c2.594,0,4.699-2.105,4.699-4.699V152.712v-16.446
			C277.231,133.672,275.126,131.567,272.532,131.567z M267.834,152.712c0,6.475-5.272,11.747-11.747,11.747
			c-6.475,0-11.747-5.272-11.747-11.747v-11.747h23.494V152.712z M234.942,152.712c0,6.475-5.272,11.747-11.747,11.747
			s-11.747-5.272-11.747-11.747v-11.747h23.494L234.942,152.712L234.942,152.712z M202.05,152.712
			c0,6.475-5.272,11.747-11.747,11.747s-11.747-5.272-11.747-11.747v-11.747h23.494L202.05,152.712L202.05,152.712z
			 M169.158,152.712c0,6.475-5.272,11.747-11.747,11.747c-6.475,0-11.747-5.272-11.747-11.747v-11.747h23.494L169.158,152.712
			L169.158,152.712z M112.772,140.965h23.494v11.747c0,6.475-5.272,11.747-11.747,11.747s-11.747-5.272-11.747-11.747V140.965z
			 M112.772,249.038v-78.762c3.364,2.255,7.401,3.581,11.747,3.581c6.677,0,12.569-3.172,16.446-8.016
			c3.877,4.845,9.769,8.016,16.446,8.016s12.569-3.172,16.446-8.016c3.877,4.845,9.769,8.016,16.446,8.016
			s12.569-3.172,16.446-8.016c3.877,4.845,9.769,8.016,16.446,8.016s12.569-3.172,16.446-8.016
			c3.877,4.845,9.769,8.016,16.446,8.016c4.346,0,8.383-1.325,11.747-3.581v78.762H112.772z"/>
		<path d="M186.577,191.276l-42.289,42.289l-6.645-6.645l42.289-42.289L186.577,191.276z M238.264,191.276l-42.289,42.289
			l-6.645-6.645l42.289-42.289L238.264,191.276z"/>
	</g>
</g>
<g>
</g>
<g>
</g>
<g>
</g>
<g>
</g>
<g>
</g>
<g>
</g>
<g>
</g>
<g>
</g>
<g>
</g>
<g>
</g>
<g>
</g>
<g>
</g>
<g>
</g>
<g>
</g>
<g>
</g>
</svg>
